<svg width="30" height="42" viewBox="0 0 30 42" fill="none" xmlns="http://www.w3.org/2000/svg">
<path d="M15.3 41.1C12.8 41.1 10.7 39 10.7 36.5V36.2H8.29998V31.5C8.29998 31.4 8.29998 31.2 8.29998 31C8.29998 29.9 8.39998 27.3 6.09998 25.4C2.99998 22.7 1.19998 19.1 0.999976 15C0.799976 11 2.19998 7.2 5.09998 4.3C7.79998 1.5 11.4 0 15.2 0C22.3 0 29.7 5.4 29.7 14.3C29.7 18.5 27.9 22.5 24.6 25.2C22.2 27.2 22.3 29.8 22.3 30.9C22.3 31.1 22.3 31.3 22.3 31.3V36.1H19.9V36.4C19.9 39 17.9 41.1 15.3 41.1ZM12.6 36.5C12.6 38 13.8 39.2 15.3 39.2C16.8 39.2 18 38 18 36.5V36.2H12.5V36.5H12.6ZM10.2 34.3H20.6V31.1H10.2V34.3ZM19.9 15.9C19.8 17.9 18.4 19.5 16.5 20L16.3 20.1V29.3H20.6V29C20.9 27 21.9 25.2 23.4 23.8C27.5 20.3 28.9 15 27 10C25.2 5 20.7 1.8 15.4 1.8C15.3 1.8 15.1 1.8 15 1.8C9.79998 2 5.29998 5.3 3.59998 10.3C1.79998 15.3 3.29998 20.5 7.29998 23.9C8.79998 25.2 9.79998 27 10.1 29V29.3H14.4V20.1L14.2 20C12.3 19.5 10.9 17.8 10.8 15.9H12.6C12.7 17.3 13.9 18.3 15.3 18.3C16.7 18.3 17.9 17.2 18 15.9H19.9Z" fill="white"/>
</svg>
