<svg width="42" height="42" viewBox="0 0 42 42" fill="none" xmlns="http://www.w3.org/2000/svg">
<path d="M8.9 9.8999C8.3 9.8999 7.9 9.3999 7.9 8.8999C7.9 8.3999 8.4 7.8999 8.9 7.8999H24.7C25.3 7.8999 25.7 8.3999 25.7 8.8999C25.7 9.3999 25.2 9.8999 24.7 9.8999H8.9Z" fill="white"/>
<path d="M8.9 15.2C8.3 15.2 7.9 14.7 7.9 14.2C7.9 13.7 8.4 13.2 8.9 13.2H19.4C20 13.2 20.4 13.7 20.4 14.2C20.4 14.7 19.9 15.2 19.4 15.2H8.9Z" fill="white"/>
<path d="M1 32.2C0.9 32.2 0.7 32.2 0.6 32.1C0.2 32 0 31.6 0 31.2V5C0 2.3 2.2 0 5 0H28.6C31.3 0 33.6 2.2 33.6 5V20.8C33.6 23.5 31.4 25.8 28.6 25.8H9.3L1.7 32C1.5 32.1 1.2 32.2 1 32.2ZM5 2C3.3 2 2 3.3 2 5V29L8.2 23.8C8.4 23.6 8.6 23.6 8.8 23.6H28.5C30.1 23.6 31.4 22.3 31.4 20.7V5C31.4 3.4 30.1 2.1 28.5 2.1H5V2Z" fill="white"/>
<path d="M40.4 41.4001C40.2 41.4001 39.9 41.3001 39.8 41.2001L33.5 36.2001H15.5C12.8 36.2001 10.5 34.0001 10.5 31.2001V29.9001C10.5 29.3001 11 28.9001 11.5 28.9001C12 28.9001 12.5 29.4001 12.5 29.9001V31.2001C12.5 32.8001 13.8 34.1001 15.4 34.1001H33.8C34 34.1001 34.3 34.2001 34.4 34.3001L39.3 38.2001V15.5001C39.3 13.9001 38 12.6001 36.4 12.6001C35.8 12.6001 35.4 12.1001 35.4 11.6001C35.4 11.1001 35.9 10.6001 36.4 10.6001C39.1 10.6001 41.4 12.8001 41.4 15.6001V40.5001C41.4 40.9001 41.2 41.2001 40.8 41.4001C40.7 41.4001 40.5 41.4001 40.4 41.4001Z" fill="white"/>
</svg>
