<svg width="37" height="42" viewBox="0 0 37 42" fill="none" xmlns="http://www.w3.org/2000/svg">
<path d="M18.5997 41.4C18.3997 41.4 18.1997 41.4 18.0997 41.3C17.9997 41.3 17.8997 41.2 17.6997 41.2C13.6997 39.8 10.3997 37.9 7.89967 35.4C5.69967 33.2 3.99967 30.6 2.89967 27.6C0.799671 22.1 0.899671 16 0.999671 11.1C0.999671 10.6 0.999671 10.2 0.999671 9.7C0.999671 7.5 2.69967 5.8 4.89967 5.6C9.79967 5.3 13.5997 3.7 16.7997 0.6C17.3997 0.2 17.9997 0 18.5997 0C19.1997 0 19.7997 0.2 20.1997 0.6C23.4997 3.8 27.2997 5.4 32.1997 5.7C34.3997 5.8 36.0997 7.6 36.0997 9.8C36.0997 10.3 36.0997 10.7 36.0997 11.1C36.1997 16 36.2997 22.1 34.2997 27.7C33.1997 30.7 31.4997 33.3 29.2997 35.5C26.7997 38 23.4997 39.9 19.4997 41.3C19.3997 41.3 19.2997 41.4 19.0997 41.4C18.8997 41.4 18.7997 41.4 18.5997 41.4ZM18.5997 1.9C18.4997 1.9 18.3997 1.9 18.2997 2C16.4997 3.8 14.5997 5.1 12.3997 6C10.1997 6.9 7.79967 7.4 5.09967 7.6C3.89967 7.6 2.99967 8.6 2.89967 9.8C2.89967 10.3 2.89967 10.7 2.89967 11.2C2.79967 16.2 2.69967 21.9 4.59967 27.1C6.79967 33.1 11.2997 37.1 18.2997 39.6H18.3997C18.4997 39.6 18.4997 39.6 18.5997 39.6C18.6997 39.6 18.6997 39.6 18.7997 39.6H18.8997C25.8997 37 30.2997 33 32.4997 27C34.3997 21.8 34.2997 16.1 34.1997 11.2C34.1997 10.8 34.1997 10.3 34.1997 9.8C34.1997 8.6 33.1997 7.6 32.0997 7.6C29.3997 7.4 26.9997 6.9 24.7997 6C22.5997 5.1 20.6997 3.8 18.8997 2C18.7997 1.9 18.6997 1.9 18.5997 1.9Z" fill="white"/>
<path d="M18.6004 30.9C13.0004 30.9 8.40039 26.3 8.40039 20.7C8.40039 15.1 13.0004 10.5 18.6004 10.5C24.2004 10.5 28.8004 15.1 28.8004 20.7C28.8004 26.3 24.2004 30.9 18.6004 30.9ZM18.6004 12.4C14.0004 12.4 10.3004 16.1 10.3004 20.7C10.3004 25.3 14.0004 29 18.6004 29C23.2004 29 26.9004 25.3 26.9004 20.7C26.9004 16.1 23.2004 12.4 18.6004 12.4Z" fill="white"/>
<path d="M16.7 25C16.5 25 16.2 24.9 16 24.7L13.8 22.5C13.6 22.3 13.5 22.0999 13.5 21.7999C13.5 21.4999 13.6 21.3 13.8 21.1C14 20.9 14.2 20.7999 14.5 20.7999C14.8 20.7999 15 20.9 15.2 21.1L16.7 22.6L21.8 17.5C22 17.3 22.2 17.2 22.5 17.2C22.8 17.2 23 17.3 23.2 17.5C23.6 17.9 23.6 18.4999 23.2 18.7999L17.5 24.5C17.2 24.9 17 25 16.7 25Z" fill="white"/>
</svg>
