<svg width="268" height="138" viewBox="0 0 268 138" fill="none" xmlns="http://www.w3.org/2000/svg">
<path d="M184.545 0.450315C184.545 0.450315 156.63 3.79303 158.34 41.1129C158.34 41.1129 164.351 63.5523 192.597 98.4333C192.597 98.4333 225.291 143.605 176.149 119.095C176.149 119.095 117.894 87.1095 140.681 63.5523C140.681 63.5523 150.367 50.5804 206.761 37.2095L234.676 30.524C234.676 30.524 211.319 29.9669 167.456 38.8808C167.456 38.8808 87.7008 50.5768 107.642 81.7719C107.642 81.7719 119.603 113.524 183.409 134.134C183.409 134.134 221.575 146.387 220.436 126.891C220.436 126.891 221.575 117.978 206.195 101.268L182.269 73.4151C182.269 73.4151 152.278 41.8873 169.562 16.0389C169.562 16.0389 174.763 4.61973 194.039 6.01074C213.315 7.40174 206.195 22.7208 206.195 22.7208C206.195 22.7208 214.834 12.5344 206.916 4.83539C205.795 3.74631 204.442 2.90164 202.994 2.27983C199.869 0.949926 193.664 -0.850831 184.545 0.450315Z" fill="url(#paint0_linear)"/>
<path d="M178.788 44.704L180.251 44.2224C180.905 44.0319 181.401 43.845 181.401 43.845" fill="url(#paint1_linear)"/>
<path d="M256.046 23.1959C255.627 23.2318 255.186 23.2714 254.737 23.3145C254.586 23.3289 254.432 23.3432 254.278 23.3576C254.112 23.372 253.951 23.3936 253.785 23.4187C253.62 23.4439 253.458 23.4655 253.296 23.4798C253.296 23.4798 250.859 23.6164 247.727 23.0449C246.728 22.8688 245.654 22.6172 244.562 22.2578C243.449 21.8911 242.32 21.4167 241.243 20.7985C239.938 20.058 238.791 19.2206 237.689 18.4118C236.726 17.7073 235.792 17.0244 234.81 16.4493C232.259 14.9541 229.385 14.1957 224.794 15.6837L232.535 23.7746L236.105 27.3337L238.575 26.8872C238.575 26.8872 253.37 24.0262 258.77 23.009C258.075 23.0377 257.336 23.0809 256.546 23.142C256.377 23.142 256.211 23.1671 256.046 23.1959Z" fill="url(#paint2_linear)"/>
<path d="M258.767 23.009C258.867 23.0054 258.969 23.0018 259.069 22.9982C261.605 22.4878 260.962 22.5956 258.767 23.009Z" fill="url(#paint3_linear)"/>
<path d="M262.714 23.0233C261.674 22.9586 260.469 22.9478 259.072 22.9982C256.271 23.5625 249.584 24.8852 236.822 27.3904C218.204 31.0458 205.221 34.3993 196.204 37.2029C196.204 37.2029 127.987 52.3997 135.427 76.5572C135.427 76.5572 130.498 57.8667 186.481 42.731C200.861 38.9246 222.6 34.0974 222.6 34.0974C225.217 33.6014 228.022 33.127 231.029 32.6741C232.44 32.462 233.888 32.2535 235.388 32.0523L235.193 32.0163C237.796 31.6461 240.59 31.2507 243.376 30.8625C243.968 30.7799 244.556 30.6972 245.144 30.6145C248.632 30.1149 252.029 29.6369 254.94 29.2379L255.131 29.2127C256.094 29.0762 257.002 28.9504 257.837 28.8353C258.917 28.6844 259.884 28.5514 260.711 28.4328C262.347 28.2063 263.391 28.0662 263.545 28.0662C268.081 27.7822 271.077 23.584 262.714 23.0233Z" fill="url(#paint4_linear)"/>
<path d="M161.64 51.1849L166.646 49.1289C166.646 49.1289 170.778 59.0421 174.998 64.527L169.914 67.158C169.914 67.1616 165.198 58.3735 161.64 51.1849Z" fill="url(#paint5_linear)"/>
<path d="M158.316 40.5599L164.106 39.4456C164.106 39.4456 162.845 33.1268 165.094 25.0827L159.882 24.3818C159.882 24.3818 157.541 31.5597 158.316 40.5599Z" fill="url(#paint6_linear)"/>
<path d="M178.788 120.386C178.788 120.386 185.945 123.851 194.16 126.482C207.037 130.605 222.519 132.675 217.156 116.145L201.913 114.29C201.913 114.29 208.136 126.04 198.52 126.658C198.52 126.658 195.892 126.967 190.683 125.231" fill="url(#paint7_linear)"/>
<path d="M9.01813 68.9663C11.6932 68.9663 13.7478 69.6576 15.1819 71.04C16.6435 72.3949 17.3744 74.358 17.3744 76.9294C17.3744 79.9156 16.4505 82.2797 14.6027 84.0216C12.7826 85.7635 10.2729 86.6345 7.07385 86.6345H4.13675V87.2566L4.34359 95.6345H0L0.289573 87.6299L0 69.0078L9.01813 68.9663ZM8.31488 83.3165C9.83169 83.0124 10.9762 82.3626 11.7484 81.3672C12.5482 80.3442 12.948 78.9894 12.948 77.3027C12.948 75.6437 12.5206 74.4133 11.6657 73.6115C10.8383 72.8096 9.56969 72.3811 7.85984 72.3258L4.34359 72.4502L4.17812 83.2336L8.31488 83.3165Z" fill="#234B91"/>
<path d="M30.454 74.5654C33.4876 74.5654 35.8317 75.464 37.4864 77.2612C39.1687 79.0308 40.0099 81.5331 40.0099 84.7682C40.0099 88.3626 39.1136 91.1276 37.321 93.0631C35.5559 94.9986 33.0325 95.9663 29.7507 95.9663C26.6895 95.9663 24.3316 95.0539 22.6768 93.229C21.0221 91.4041 20.1948 88.8188 20.1948 85.4732C20.1948 81.9894 21.0773 79.3073 22.8423 77.4271C24.6349 75.5193 27.1721 74.5654 30.454 74.5654ZM30.0816 77.8419C28.096 77.8419 26.6343 78.4087 25.6967 79.5423C24.7866 80.6483 24.3316 82.4594 24.3316 84.9755C24.3316 87.7682 24.7866 89.7589 25.6967 90.9479C26.6068 92.1368 28.0546 92.7313 30.0403 92.7313C32.0535 92.7313 33.5289 92.1783 34.4666 91.0723C35.4043 89.9387 35.8731 88.1 35.8731 85.5562C35.8731 82.7912 35.4181 80.8142 34.508 79.6253C33.5979 78.4364 32.1224 77.8419 30.0816 77.8419Z" fill="#234B91"/>
<path d="M48.7659 89.04L48.9314 95.6345H44.9601L45.1255 89.4133L44.9601 74.8557H48.9727L48.7659 89.04Z" fill="#234B91"/>
<path d="M73.7354 89.2889L73.8595 95.6345H69.5573L59.7532 81.0354H59.505L59.4636 88.5838L59.5877 95.6345H55.9887L56.1542 89.5377L56.0301 74.8557H60.2496L70.0537 89.4548H70.3846L70.2605 74.9801L73.9422 74.7728L73.7354 89.2889Z" fill="#234B91"/>
<path d="M94 75.1875L93.7518 78.3811L89.7391 78.0907H88.0017L87.919 89.04L88.0431 95.6345H84.0718L84.2373 89.4133L84.1545 78.0907H82.4585L78.3631 78.3811L78.0735 78.0493L78.3631 74.8557H93.7932L94 75.1875Z" fill="#234B91"/>
<path d="M56.042 58.8179H54.2051L53.8225 53.9957L52.9551 46.107H52.7765L48.2353 56.9879H46.5515L42.24 46.107H42.0359L41.1685 53.8473L40.7348 58.8179H39L40.7093 42.9663H43.0309L43.8728 45.3898L47.419 54.4161H47.572L51.2968 45.2414L52.1387 42.9663H54.4348L56.042 58.8179Z" fill="#234B91"/>
<path d="M69.7946 58.8179H67.8812L67.575 57.4825L66.9117 55.6526L63.8758 55.6278L61.1715 55.6526L60.4827 57.3836L60.1255 58.8179H58.2376L63.1359 46.5026H65.33L69.7946 58.8179ZM66.376 54.1441L64.2585 48.3079H64.1054L61.7838 54.1441L64.0289 54.1688L66.376 54.1441Z" fill="#234B91"/>
<path d="M77.5514 46.379C78.9631 46.379 80.1876 46.6675 81.2251 47.2445L80.868 48.9509L80.6384 49.025C80.2132 48.6788 79.7199 48.4068 79.1587 48.209C78.5974 48.0111 77.9936 47.9122 77.3473 47.9122C76.0887 47.9122 75.1278 48.3079 74.4644 49.0992C73.8011 49.8741 73.4695 51.0364 73.4695 52.5861C73.4695 54.1523 73.8011 55.3476 74.4644 56.1719C75.1278 56.9962 76.0887 57.4083 77.3473 57.4083C77.9596 57.4083 78.5719 57.3094 79.1842 57.1116C79.8135 56.8973 80.3747 56.617 80.868 56.2708L81.0976 56.345L80.919 58.0513C79.7624 58.6613 78.5464 58.9663 77.2708 58.9663C75.3999 58.9663 73.9627 58.4305 72.9592 57.3589C71.9558 56.2708 71.454 54.7293 71.454 52.7345C71.454 50.7066 71.9813 49.1404 73.0358 48.0359C74.1073 46.9313 75.6125 46.379 77.5514 46.379Z" fill="#234B91"/>
<path d="M94.9235 54.9601L94.9745 58.8179H93.0866L93.1631 55.1085L93.1376 53.4269L86.2239 53.4516L86.1984 54.9601L86.2494 58.8179H84.3615L84.438 55.1085L84.3615 46.5026H86.2749L86.2239 51.7947L89.668 51.8195L93.1376 51.7947L93.0866 46.5026H95L94.9235 54.9601Z" fill="#234B91"/>
<path d="M45 74.9663H49V95.9663H45V74.9663Z" fill="#234B91"/>
<g filter="url(#filter0_d)">
<path d="M45.2364 81.3572C45.2609 81.1088 45.2857 80.8472 45.3093 80.5809C45.3172 80.4914 45.3256 80.3998 45.334 80.3081C45.3435 80.2101 45.3486 80.1134 45.352 80.0141C45.3553 79.9149 45.3604 79.8182 45.3695 79.7222C45.3695 79.7222 45.5535 78.2859 46.2184 76.523C46.4271 75.9595 46.6869 75.3615 47.0106 74.7648C47.3407 74.1559 47.7343 73.5505 48.2048 72.9911C48.7699 72.3123 49.3737 71.7365 49.9562 71.1832C50.464 70.6997 50.9561 70.2311 51.3916 69.7226C52.5238 68.4009 53.2682 66.8088 52.9089 63.9663L47.4353 67.5826L45.0098 69.2692L45 70.759C45 70.759 45.0483 79.7045 45.0504 82.9663C45.1087 82.558 45.1635 82.1223 45.2135 81.6547C45.2317 81.5561 45.2351 81.4568 45.2364 81.3572Z" fill="url(#paint8_linear)"/>
</g>
<defs>
<filter id="filter0_d" x="41" y="63.9663" width="16" height="27" filterUnits="userSpaceOnUse" color-interpolation-filters="sRGB">
<feFlood flood-opacity="0" result="BackgroundImageFix"/>
<feColorMatrix in="SourceAlpha" type="matrix" values="0 0 0 0 0 0 0 0 0 0 0 0 0 0 0 0 0 0 127 0" result="hardAlpha"/>
<feOffset dy="4"/>
<feGaussianBlur stdDeviation="2"/>
<feComposite in2="hardAlpha" operator="out"/>
<feColorMatrix type="matrix" values="0 0 0 0 0.00232476 0 0 0 0 0.0404529 0 0 0 0 0.383606 0 0 0 0.34 0"/>
<feBlend mode="normal" in2="BackgroundImageFix" result="effect1_dropShadow"/>
<feBlend mode="normal" in="SourceGraphic" in2="effect1_dropShadow" result="shape"/>
</filter>
<linearGradient id="paint0_linear" x1="104.441" y1="68.9709" x2="234.676" y2="68.9709" gradientUnits="userSpaceOnUse">
<stop stop-color="#12A9E0"/>
<stop offset="0.4665" stop-color="#7BCEF6"/>
<stop offset="1" stop-color="#0E508C"/>
</linearGradient>
<linearGradient id="paint1_linear" x1="181.455" y1="43.6309" x2="179.145" y2="44.7755" gradientUnits="userSpaceOnUse">
<stop stop-color="#C52026"/>
<stop offset="0.4665" stop-color="#DF2027"/>
<stop offset="0.5911" stop-color="#DB2027"/>
<stop offset="0.7208" stop-color="#CE1F25"/>
<stop offset="0.8529" stop-color="#B91D23"/>
<stop offset="0.9859" stop-color="#9D1B1F"/>
<stop offset="1" stop-color="#991B1F"/>
</linearGradient>
<linearGradient id="paint2_linear" x1="250" y1="20.9828" x2="224.875" y2="-2.92418" gradientUnits="userSpaceOnUse">
<stop offset="0.0553884" stop-color="#C52026"/>
<stop offset="0.4665" stop-color="#D8454A"/>
<stop offset="0.5911" stop-color="#D03A3F"/>
<stop offset="0.7208" stop-color="#CE1F25"/>
<stop offset="0.8529" stop-color="#BC3A3F"/>
<stop offset="0.9859" stop-color="#9D1B1F"/>
<stop offset="1" stop-color="#C83F43"/>
</linearGradient>
<linearGradient id="paint3_linear" x1="260.685" y1="22.3847" x2="259.076" y2="23.1819" gradientUnits="userSpaceOnUse">
<stop stop-color="#C52026"/>
<stop offset="0.4665" stop-color="#D8454A"/>
<stop offset="0.5911" stop-color="#D03A3F"/>
<stop offset="0.7208" stop-color="#CE1F25"/>
<stop offset="0.8529" stop-color="#BC3A3F"/>
<stop offset="0.9859" stop-color="#9D1B1F"/>
<stop offset="1" stop-color="#C83F43"/>
</linearGradient>
<linearGradient id="paint4_linear" x1="266.336" y1="-18.1636" x2="131.139" y2="-12.4838" gradientUnits="userSpaceOnUse">
<stop stop-color="#EB5254"/>
<stop offset="0.4665" stop-color="#D8454A"/>
<stop offset="0.5911" stop-color="#D03A3F"/>
<stop offset="0.7208" stop-color="#CE1F25"/>
<stop offset="0.8529" stop-color="#BC3A3F"/>
<stop offset="0.9859" stop-color="#9D1B1F"/>
</linearGradient>
<linearGradient id="paint5_linear" x1="172.019" y1="65.7678" x2="165.75" y2="51.7514" gradientUnits="userSpaceOnUse">
<stop stop-color="#1F93CE" stop-opacity="0"/>
<stop offset="0.00451917" stop-color="#1F93CE" stop-opacity="0.01"/>
<stop offset="0.4345" stop-color="#216DAD" stop-opacity="0.4345"/>
<stop offset="0.7815" stop-color="#235698" stop-opacity="0.7815"/>
<stop offset="1" stop-color="#234E91"/>
</linearGradient>
<linearGradient id="paint6_linear" x1="161.627" y1="24.6945" x2="161.627" y2="43.1334" gradientUnits="userSpaceOnUse">
<stop stop-color="#1F93CE" stop-opacity="0"/>
<stop offset="0.00451917" stop-color="#1F93CE" stop-opacity="0.01"/>
<stop offset="0.4345" stop-color="#216DAD" stop-opacity="0.4345"/>
<stop offset="0.7815" stop-color="#235698" stop-opacity="0.7815"/>
<stop offset="1" stop-color="#234E91"/>
</linearGradient>
<linearGradient id="paint7_linear" x1="198.518" y1="114.585" x2="198.518" y2="131.791" gradientUnits="userSpaceOnUse">
<stop stop-color="#1F93CE" stop-opacity="0"/>
<stop offset="0.00451917" stop-color="#1F93CE" stop-opacity="0.01"/>
<stop offset="0.4345" stop-color="#216DAD" stop-opacity="0.4345"/>
<stop offset="0.7815" stop-color="#235698" stop-opacity="0.7815"/>
<stop offset="1" stop-color="#234E91"/>
</linearGradient>
<linearGradient id="paint8_linear" x1="47.1565" y1="78.0773" x2="63.7534" y2="66.3353" gradientUnits="userSpaceOnUse">
<stop offset="0.0553884" stop-color="#C52026"/>
<stop offset="0.4665" stop-color="#D8454A"/>
<stop offset="0.5911" stop-color="#D03A3F"/>
<stop offset="0.7208" stop-color="#CE1F25"/>
<stop offset="0.8529" stop-color="#BC3A3F"/>
<stop offset="0.9859" stop-color="#9D1B1F"/>
<stop offset="1" stop-color="#C83F43"/>
</linearGradient>
</defs>
</svg>
