<svg width="92" height="78" viewBox="0 0 92 78" fill="none" xmlns="http://www.w3.org/2000/svg">
<path d="M48.5376 0.25436C48.5376 0.25436 34.0342 2.1425 34.9223 23.2226C34.9223 23.2226 38.0456 35.8975 52.7215 55.6001C52.7215 55.6001 69.7082 81.1154 44.1755 67.271C44.1755 67.271 13.9083 49.2038 25.7474 35.8975C25.7474 35.8975 30.7798 28.5703 60.0807 21.0178L74.584 17.2415C74.584 17.2415 62.4489 16.9268 39.6587 21.9618C39.6587 21.9618 -1.77921 28.5683 8.5817 46.1889C8.5817 46.1889 14.7963 64.1241 47.9474 75.7656C47.9474 75.7656 67.7773 82.6868 67.1853 71.6747C67.1853 71.6747 67.7773 66.6396 59.7865 57.201L47.3554 41.4685C47.3554 41.4685 31.7728 23.6601 40.753 9.05958C40.753 9.05958 43.4555 2.60946 53.4707 3.39516C63.4859 4.18087 59.7865 12.8338 59.7865 12.8338C59.7865 12.8338 64.2747 7.08008 60.1609 2.73127C59.5784 2.1161 58.8755 1.63899 58.1231 1.28776C56.4997 0.536566 53.2759 -0.480592 48.5376 0.25436Z" fill="url(#paint0_linear)"/>
<path d="M45.5471 25.2509L46.3069 24.9788C46.6467 24.8712 46.9044 24.7656 46.9044 24.7656" fill="url(#paint1_linear)"/>
<path d="M85.6913 13.1023C85.4736 13.1226 85.2444 13.145 85.0114 13.1693C84.9331 13.1775 84.8529 13.1856 84.7727 13.1937C84.6867 13.2018 84.6027 13.214 84.5167 13.2282C84.4308 13.2424 84.3468 13.2546 84.2627 13.2627C84.2627 13.2627 82.9965 13.3399 81.3693 13.0171C80.8498 12.9176 80.2922 12.7755 79.7249 12.5724C79.1463 12.3654 78.5599 12.0974 78.0004 11.7482C77.3224 11.3299 76.7265 10.8569 76.1535 10.4001C75.6532 10.0021 75.1681 9.61639 74.6581 9.29155C73.3327 8.44696 71.8392 8.01858 69.4538 8.85911L73.4759 13.4292L75.3306 15.4396L76.6138 15.1874C76.6138 15.1874 84.3009 13.5713 87.1065 12.9968C86.7455 13.013 86.3617 13.0374 85.951 13.0719C85.8632 13.0719 85.7772 13.0861 85.6913 13.1023Z" fill="url(#paint2_linear)"/>
<path d="M87.1044 12.9969C87.1559 12.9948 87.2094 12.9928 87.2609 12.9908C88.5781 12.7025 88.2441 12.7634 87.1044 12.9969Z" fill="url(#paint3_linear)"/>
<path d="M89.1553 13.0042C88.6148 12.9677 87.9884 12.9616 87.2626 12.99C85.8073 13.3088 82.3333 14.0559 75.7024 15.471C66.029 17.5358 59.2834 19.43 54.5986 21.0136C54.5986 21.0136 19.1557 29.5975 23.0212 43.2428C23.0212 43.2428 20.4601 32.6855 49.5471 24.1361C57.0184 21.9861 68.3132 19.2594 68.3132 19.2594C69.673 18.9793 71.1302 18.7113 72.6925 18.4555C73.4258 18.3357 74.1783 18.2179 74.9575 18.1042L74.8563 18.0839C76.2085 17.8748 77.66 17.6515 79.1076 17.4322C79.4151 17.3855 79.7207 17.3388 80.0262 17.2921C81.8387 17.0099 83.6034 16.7399 85.116 16.5145L85.2153 16.5003C85.7157 16.4232 86.1874 16.3521 86.6209 16.2872C87.1824 16.2019 87.6847 16.1268 88.1144 16.0598C88.9643 15.9319 89.5067 15.8527 89.5869 15.8527C91.9437 15.6923 93.5002 13.3209 89.1553 13.0042Z" fill="url(#paint4_linear)"/>
<path d="M36.6362 28.9116L39.2374 27.7502C39.2374 27.7502 41.3841 33.3497 43.5766 36.4479L40.9353 37.934C40.9353 37.936 38.485 32.9721 36.6362 28.9116Z" fill="url(#paint5_linear)"/>
<path d="M34.9095 22.9092L37.9175 22.2798C37.9175 22.2798 37.2625 18.7106 38.4313 14.1669L35.7231 13.771C35.7231 13.771 34.5065 17.8254 34.9095 22.9092Z" fill="url(#paint6_linear)"/>
<path d="M45.5471 67.9992C45.5471 67.9992 49.2656 69.9564 53.5341 71.4425C60.2243 73.7712 68.2685 74.9407 65.4821 65.6035L57.562 64.5559C57.562 64.5559 60.7953 71.1928 55.7992 71.542C55.7992 71.542 54.4336 71.7166 51.7274 70.736" fill="url(#paint7_linear)"/>
<path d="M18.7463 1.58398H23.156L19.7211 19.8384H15.3115L18.7463 1.58398Z" fill="url(#paint8_linear)"/>
<path d="M3.96223 1.58398H8.37184L4.93702 19.8384H0.527405L3.96223 1.58398Z" fill="url(#paint9_linear)"/>
<path d="M3.99664 1.58423H8.32483L13.5868 16.0635H9.73974L3.99664 1.58423Z" fill="url(#paint10_linear)"/>
<path d="M9.77771 16.0635H13.6248L23.1051 1.58416H18.7337L9.77771 16.0635Z" fill="url(#paint11_linear)"/>
<circle cx="25.7528" cy="17.8327" r="2.12888" fill="url(#paint12_linear)"/>
<defs>
<linearGradient id="paint0_linear" x1="6.91822" y1="38.9582" x2="74.5843" y2="38.9582" gradientUnits="userSpaceOnUse">
<stop stop-color="#12A9E0"/>
<stop offset="0.4665" stop-color="#7BCEF6"/>
<stop offset="1" stop-color="#0E508C"/>
</linearGradient>
<linearGradient id="paint1_linear" x1="46.9322" y1="24.6447" x2="45.6946" y2="25.2085" gradientUnits="userSpaceOnUse">
<stop stop-color="#C52026"/>
<stop offset="0.4665" stop-color="#DF2027"/>
<stop offset="0.5911" stop-color="#DB2027"/>
<stop offset="0.7208" stop-color="#CE1F25"/>
<stop offset="0.8529" stop-color="#B91D23"/>
<stop offset="0.9859" stop-color="#9D1B1F"/>
<stop offset="1" stop-color="#991B1F"/>
</linearGradient>
<linearGradient id="paint2_linear" x1="82.5502" y1="11.8523" x2="68.4661" y2="-0.474701" gradientUnits="userSpaceOnUse">
<stop offset="0.0553884" stop-color="#C52026"/>
<stop offset="0.4665" stop-color="#D8454A"/>
<stop offset="0.5911" stop-color="#D03A3F"/>
<stop offset="0.7208" stop-color="#CE1F25"/>
<stop offset="0.8529" stop-color="#BC3A3F"/>
<stop offset="0.9859" stop-color="#9D1B1F"/>
<stop offset="1" stop-color="#C83F43"/>
</linearGradient>
<linearGradient id="paint3_linear" x1="88.1005" y1="12.6442" x2="87.2385" y2="13.0369" gradientUnits="userSpaceOnUse">
<stop stop-color="#C52026"/>
<stop offset="0.4665" stop-color="#D8454A"/>
<stop offset="0.5911" stop-color="#D03A3F"/>
<stop offset="0.7208" stop-color="#CE1F25"/>
<stop offset="0.8529" stop-color="#BC3A3F"/>
<stop offset="0.9859" stop-color="#9D1B1F"/>
<stop offset="1" stop-color="#C83F43"/>
</linearGradient>
<linearGradient id="paint4_linear" x1="91.0372" y1="-10.2602" x2="20.7743" y2="-7.54504" gradientUnits="userSpaceOnUse">
<stop stop-color="#EB5254"/>
<stop offset="0.4665" stop-color="#D8454A"/>
<stop offset="0.5911" stop-color="#D03A3F"/>
<stop offset="0.7208" stop-color="#CE1F25"/>
<stop offset="0.8529" stop-color="#BC3A3F"/>
<stop offset="0.9859" stop-color="#9D1B1F"/>
</linearGradient>
<linearGradient id="paint5_linear" x1="42.0286" y1="37.1487" x2="38.2926" y2="29.4645" gradientUnits="userSpaceOnUse">
<stop stop-color="#1F93CE" stop-opacity="0"/>
<stop offset="0.00451917" stop-color="#1F93CE" stop-opacity="0.01"/>
<stop offset="0.4345" stop-color="#216DAD" stop-opacity="0.4345"/>
<stop offset="0.7815" stop-color="#235698" stop-opacity="0.7815"/>
<stop offset="1" stop-color="#234E91"/>
</linearGradient>
<linearGradient id="paint6_linear" x1="36.6297" y1="13.9476" x2="36.6297" y2="24.3628" gradientUnits="userSpaceOnUse">
<stop stop-color="#1F93CE" stop-opacity="0"/>
<stop offset="0.00451917" stop-color="#1F93CE" stop-opacity="0.01"/>
<stop offset="0.4345" stop-color="#216DAD" stop-opacity="0.4345"/>
<stop offset="0.7815" stop-color="#235698" stop-opacity="0.7815"/>
<stop offset="1" stop-color="#234E91"/>
</linearGradient>
<linearGradient id="paint7_linear" x1="55.7984" y1="64.7223" x2="55.7984" y2="74.4411" gradientUnits="userSpaceOnUse">
<stop stop-color="#1F93CE" stop-opacity="0"/>
<stop offset="0.00451917" stop-color="#1F93CE" stop-opacity="0.01"/>
<stop offset="0.4345" stop-color="#216DAD" stop-opacity="0.4345"/>
<stop offset="0.7815" stop-color="#235698" stop-opacity="0.7815"/>
<stop offset="1" stop-color="#234E91"/>
</linearGradient>
<linearGradient id="paint8_linear" x1="23.156" y1="12.1851" x2="18.7922" y2="10.0342" gradientUnits="userSpaceOnUse">
<stop stop-color="#EA5254"/>
<stop offset="1" stop-color="#CF2A2F"/>
</linearGradient>
<linearGradient id="paint9_linear" x1="5.05108" y1="18.2357" x2="9.33397" y2="17.1562" gradientUnits="userSpaceOnUse">
<stop stop-color="#EA5254"/>
<stop offset="1" stop-color="#CF2A2F"/>
</linearGradient>
<linearGradient id="paint10_linear" x1="8.4847" y1="1.58423" x2="2.54831" y2="9.75378" gradientUnits="userSpaceOnUse">
<stop stop-color="#FB6668"/>
<stop offset="1" stop-color="#CE1C22"/>
</linearGradient>
<linearGradient id="paint11_linear" x1="16.8166" y1="14.8489" x2="10.1089" y2="6.98754" gradientUnits="userSpaceOnUse">
<stop stop-color="#EA5254"/>
<stop offset="1" stop-color="#CF2A2F"/>
</linearGradient>
<linearGradient id="paint12_linear" x1="25.7528" y1="16.3622" x2="22.4433" y2="18.0134" gradientUnits="userSpaceOnUse">
<stop stop-color="#EA5254"/>
<stop offset="1" stop-color="#CF2A2F"/>
</linearGradient>
</defs>
</svg>
